<svg width="16" height="16" viewBox="0 0 16 16" fill="none" xmlns="http://www.w3.org/2000/svg">
<path d="M15.9577 8.15005C15.9577 8.90005 15.3577 9.50005 14.6077 9.50005H9.20768V14.6C9.20768 15.35 8.60768 15.95 7.85768 15.95C7.10768 15.95 6.50768 15.35 6.50768 14.6V9.50005H1.40768C0.657678 9.50005 0.0576782 8.90005 0.0576782 8.15005C0.0576782 7.40005 0.657678 6.80005 1.40768 6.80005H6.50768V1.40005C6.50768 0.650049 7.10768 0.0500488 7.85768 0.0500488C8.60768 0.0500488 9.20768 0.650049 9.20768 1.40005V6.80005H14.6077C15.3577 6.80005 15.9577 7.40005 15.9577 8.15005Z" fill="white"/>
</svg>
