<svg width="16" height="16" viewBox="0 0 16 16" fill="none" xmlns="http://www.w3.org/2000/svg">
<path fill-rule="evenodd" clip-rule="evenodd" d="M5.58035 0.633366L5.4422 0.633333C4.41517 0.63296 3.72584 0.63271 3.14669 0.828805C2.05525 1.19836 1.1983 2.05531 0.828744 3.14675C0.632649 3.7259 0.632899 4.41523 0.633271 5.44226L0.633305 5.58041L0.6333 5.64397C0.63323 6.28132 0.633186 6.68556 0.699362 7.0761C0.823455 7.80842 1.11935 8.50092 1.56278 9.09679C1.79926 9.41456 2.09141 9.69395 2.55203 10.1344L2.59797 10.1784L5.27988 12.7437L5.2987 12.7617C5.80404 13.2451 6.21002 13.6334 6.56255 13.9257C6.92476 14.2259 7.27004 14.4591 7.665 14.6058C8.5227 14.9244 9.46803 14.9139 10.3184 14.5763C10.71 14.4209 11.0501 14.1801 11.4055 13.8718C11.7515 13.5718 12.1487 13.1746 12.6432 12.6801L12.6616 12.6617L12.68 12.6433C13.1745 12.1488 13.5718 11.7515 13.8718 11.4056C14.18 11.0501 14.4208 10.7101 14.5763 10.3185C14.9138 9.46809 14.9243 8.52277 14.6057 7.66506C14.459 7.2701 14.2259 6.92482 13.9256 6.56261C13.6333 6.21009 13.245 5.80412 12.7617 5.2988L12.7436 5.27994L10.1783 2.59803L10.1344 2.55209C9.69389 2.09147 9.4145 1.79932 9.09673 1.56285C8.50085 1.11941 7.80836 0.823516 7.07604 0.699423C6.6855 0.633247 6.28126 0.633291 5.64391 0.633361L5.58035 0.633366ZM3.59568 2.15485C3.92696 2.04269 4.36285 2.03337 5.58035 2.03337C6.30196 2.03337 6.58195 2.03566 6.84214 2.07975C7.35633 2.16688 7.84254 2.37463 8.26093 2.68598C8.47263 2.84353 8.66782 3.04427 9.16662 3.56574L11.7319 6.24765C12.2375 6.77617 12.5911 7.14644 12.8478 7.45612C13.1001 7.76049 13.2242 7.96641 13.2933 8.15255C13.4914 8.68571 13.4849 9.27335 13.275 9.80199C13.2018 9.98654 13.0731 10.1897 12.8141 10.4883C12.5506 10.7922 12.1888 11.1546 11.6717 11.6717C11.1545 12.1889 10.7922 12.5506 10.4883 12.8142C10.1896 13.0732 9.98648 13.2018 9.80193 13.2751C9.27329 13.4849 8.68565 13.4915 8.15249 13.2934C7.96635 13.2243 7.76043 13.1002 7.45606 12.8479C7.14638 12.5911 6.77611 12.2375 6.24759 11.732L3.56568 9.16668C3.04421 8.66788 2.84346 8.47269 2.68592 8.26099C2.37457 7.84261 2.16681 7.35639 2.07969 6.8422C2.0356 6.58201 2.0333 6.30202 2.0333 5.58041C2.0333 4.36291 2.04263 3.92702 2.15479 3.59574C2.38452 2.91728 2.91722 2.38458 3.59568 2.15485ZM4.69999 5.66669C4.69999 5.13282 5.13278 4.70003 5.66665 4.70003C6.20053 4.70003 6.63332 5.13282 6.63332 5.66669C6.63332 6.20057 6.20053 6.63336 5.66665 6.63336C5.13278 6.63336 4.69999 6.20057 4.69999 5.66669ZM5.66665 3.30003C4.35958 3.30003 3.29999 4.35962 3.29999 5.66669C3.29999 6.97377 4.35958 8.03336 5.66665 8.03336C6.97373 8.03336 8.03332 6.97377 8.03332 5.66669C8.03332 4.35962 6.97373 3.30003 5.66665 3.30003Z" fill="#E84C4F"/>
</svg>
